<svg width="83" height="83" viewBox="0 0 32 32" role="img" fill="none" xmlns="http://www.w3.org/2000/svg" aria-labelledby="IconLogo-label" aria-hidden="true" focusable="false"><title id="IconLogo-label">Ripio Logo</title><path d="M2.448 13.375h.03c.466-.854 1.267-1.237 2.229-1.237h.466v2.371c-.335-.191-.656-.235-1.035-.235-1.355 0-1.69.913-1.69 2.106v2.813H0v-6.966h2.448v1.148zM8.874 12.227H6.426v6.95h2.448v-6.95zM13.144 13.022h.029c.437-.692 1.268-1.016 2.084-1.016 2.054 0 3.468 1.737 3.468 3.726 0 2.003-1.414 3.681-3.454 3.681-.787 0-1.603-.28-2.127-.898v3.814l-2.448 1.046V12.227h2.448v.795zm-.073 2.695c0 .883.583 1.561 1.574 1.561.99 0 1.573-.677 1.573-1.561 0-.854-.582-1.576-1.573-1.576s-1.574.722-1.574 1.576zM22.485 12.227h-2.449v6.95h2.448v-6.95zM32 15.717c0 2.356-1.938 3.696-4.153 3.696-2.2 0-4.153-1.325-4.153-3.696 0-2.371 1.938-3.711 4.153-3.711S32 13.346 32 15.716zm-5.727 0c0 .883.583 1.561 1.574 1.561.991 0 1.574-.677 1.574-1.561 0-.854-.583-1.576-1.574-1.576-.99 0-1.574.722-1.574 1.576zM8.874 10.297l-2.39.972V8.972L8.874 8v2.297zM22.44 10.297l-2.389.972V8.972L22.456 8l-.015 2.297z" fill="#242424"/></svg>